<svg xmlns="http://www.w3.org/2000/svg" width="24" height="24" fill="none" viewBox="0 0 24 24">
  <path fill="#000" fill-opacity=".45" d="M17.47 3.53a.75.75 0 1 1 1.06-1.061l2 2a.75.75 0 0 1-1.06 1.061l-2-2Zm-12.94 0a.75.75 0 1 0-1.061-1.061l-2 2a.75.75 0 0 0 1.06 1.061l2-2ZM11 19.25c-3.998 0-7.25-3.252-7.25-7.25S7.002 4.75 11 4.75c3.653 0 6.747 2.727 7.196 6.342.05.412.44.701.837.652a.749.749 0 0 0 .65-.836C19.143 6.542 15.41 3.25 11 3.25c-4.825 0-8.75 3.925-8.75 8.75 0 2.907 1.43 5.479 3.618 7.072L4.469 20.47a.75.75 0 0 0 1.06 1.061l1.664-1.664a8.68 8.68 0 0 0 3.806.883.75.75 0 0 0 0-1.5Zm0-11.96a.75.75 0 0 0-.75.75v4a.75.75 0 0 0 1.5 0v-4a.75.75 0 0 0-.75-.75Zm11.75 8.591c-.001.438-.172.85-.482 1.16l-5.516 5.49a.75.75 0 0 1-.53.218H14a.75.75 0 0 1-.75-.75v-2.222c0-.198.078-.389.219-.529l5.49-5.516a1.62 1.62 0 0 1 1.159-.482h.003c.438 0 .849.17 1.158.48l.99.99c.31.31.48.723.48 1.161Zm-2.727-1.09-.635.638 1.184 1.183.637-.634a.135.135 0 0 0 .04-.098.138.138 0 0 0-.04-.099l-.99-.99a.136.136 0 0 0-.098-.041h-.001a.136.136 0 0 0-.097.041Zm-.514 2.879-1.18-1.179-3.58 3.596v1.163h1.163l3.597-3.58Z"/>
</svg>
