<svg xmlns="http://www.w3.org/2000/svg" width="24" height="24" fill="none" viewBox="0 0 24 24">
  <path fill="#000" fill-opacity=".45" d="m21.287 6.882-.001-.006c-.002-.005-.007-.008-.01-.013a3.739 3.739 0 0 0-1.751-1.622l-6-2.667a3.76 3.76 0 0 0-3.047 0l-6 2.667a3.734 3.734 0 0 0-1.752 1.622c-.002.005-.007.008-.01.013v.006a3.732 3.732 0 0 0-.463 1.785v6.667c0 1.48.874 2.825 2.227 3.427l6 2.667c.482.214.999.32 1.516.322l.008.001.008-.001a3.754 3.754 0 0 0 1.516-.322l6-2.667a3.752 3.752 0 0 0 2.227-3.427V8.667a3.791 3.791 0 0 0-.468-1.785ZM11.086 3.944a2.254 2.254 0 0 1 1.828-.001l6 2.667c.17.076.319.181.462.292l-2.733 1.215L9.383 4.7l1.703-.756ZM7.573 5.505l7.259 3.417-1.912.85a2.305 2.305 0 0 1-1.835.002L4.624 6.902c.143-.111.292-.217.462-.292l2.487-1.105ZM5.086 17.389a2.252 2.252 0 0 1-1.336-2.056V8.666c0-.165.036-.323.07-.479l6.66 2.96c.249.108.507.187.77.239v8.722c-.054-.019-.111-.03-.164-.053l-6-2.666Zm15.164-2.056c0 .888-.524 1.695-1.336 2.056l-6 2.667c-.053.024-.11.034-.164.053v-8.723c.264-.053.524-.132.774-.241l2.355-1.047v1.792a.75.75 0 0 0 1.5 0V9.432l2.8-1.244c.035.157.07.314.07.479v6.666Z"/>
</svg>
