<svg xmlns="http://www.w3.org/2000/svg" width="24" height="24" fill="none" viewBox="0 0 24 24">
  <path fill="#000" fill-opacity=".45" d="m21.479 17.557-7.18-12.952a2.595 2.595 0 0 0-2.298-1.355c-.97 0-1.829.506-2.299 1.355l-7.18 12.953a2.13 2.13 0 0 0 .028 2.134 2.131 2.131 0 0 0 1.852 1.059H19.6c.77 0 1.462-.396 1.852-1.059.389-.664.4-1.462.027-2.135ZM7.733 11.25h8.535l1.94 3.5H5.794l1.939-3.5Zm3.28-5.918c.202-.365.57-.582.987-.582.416 0 .785.217.987.582l2.449 4.418H8.564l2.449-4.418Zm9.145 13.598a.64.64 0 0 1-.56.32H4.4a.64.64 0 0 1-.56-.32.64.64 0 0 1-.007-.646L4.96 16.25h14.077l1.128 2.035a.64.64 0 0 1-.008.646Z"/>
</svg>
