<svg xmlns="http://www.w3.org/2000/svg" width="24" height="24" fill="none" viewBox="0 0 24 24">
  <path fill="#000" fill-opacity=".45" d="m16.53 8.53 5-5a.75.75 0 0 0-1.061-1.061l-4.797 4.797c-.094.005-.19.005-.282.014a7.67 7.67 0 0 0-1.104-1.222 7.202 7.202 0 0 0-4.787-1.809c-3.998 0-7.25 3.252-7.25 7.25A7.27 7.27 0 0 0 5.437 17.5l-2.97 2.969a.75.75 0 0 0 1.06 1.061l13.003-13ZM3.75 11.5A5.756 5.756 0 0 1 9.5 5.75c1.404 0 2.75.508 3.789 1.428.44.395.812.834 1.104 1.306.008.013.02.021.029.034l-7.888 7.888A5.746 5.746 0 0 1 3.75 11.5Zm18 1.5A5.756 5.756 0 0 1 16 18.75h-6a.75.75 0 0 1 0-1.5h6A4.254 4.254 0 0 0 20.25 13a4.28 4.28 0 0 0-1.701-3.401.75.75 0 1 1 .903-1.199A5.788 5.788 0 0 1 21.75 13Z"/>
</svg>
