<svg xmlns="http://www.w3.org/2000/svg" width="24" height="24" fill="none" viewBox="0 0 24 24">
  <path fill="#000" fill-opacity=".45" d="M20.95 6.973a1.907 1.907 0 0 0-2.193-.04l-2.316 1.544a.222.222 0 0 1-.188.03.223.223 0 0 1-.145-.122l-2.37-5.031a1.906 1.906 0 0 0-1.74-1.104h-.002c-.753 0-1.419.424-1.74 1.105L7.892 8.384a.227.227 0 0 1-.146.123.223.223 0 0 1-.188-.03L5.242 6.933a1.91 1.91 0 0 0-2.192.04 1.904 1.904 0 0 0-.733 2.057l1.82 7.032a2.249 2.249 0 0 0 2.177 1.687h11.37a2.249 2.249 0 0 0 2.178-1.687l1.816-7.023a1.905 1.905 0 0 0-.729-2.066Zm-.72 1.682-1.819 7.033a.75.75 0 0 1-.726.562H6.315a.75.75 0 0 1-.726-.562L3.77 8.646a.407.407 0 0 1 .16-.455.437.437 0 0 1 .25-.084c.07 0 .15.02.233.075l2.316 1.544a1.725 1.725 0 0 0 2.523-.703l2.364-5.029a.412.412 0 0 1 .383-.243c.081 0 .28.024.383.243l2.371 5.031a1.725 1.725 0 0 0 2.522.701l2.316-1.544a.407.407 0 0 1 .483.009c.07.051.23.199.157.464ZM19.25 20a.75.75 0 0 1-.75.75h-13a.75.75 0 0 1 0-1.5h13a.75.75 0 0 1 .75.75Z"/>
</svg>
