<svg xmlns="http://www.w3.org/2000/svg" width="24" height="24" fill="none" viewBox="0 0 24 24">
  <path fill="#000" fill-opacity=".45" d="M19.5 2.25H8.096c-2.496 0-3.107 1.213-3.558 2.564l-2 6c-.467 1.404-.365 2.675.286 3.578.446.62 1.377 1.358 3.272 1.358h3.156v2.487c0 1.256.624 2.422 1.669 3.12a2.328 2.328 0 0 0 2.013.28 2.33 2.33 0 0 0 1.48-1.432l2.129-6.455h2.956c1.24 0 2.25-1.009 2.25-2.25v-7a2.251 2.251 0 0 0-2.25-2.25Zm-4.211 10.515-2.287 6.941a.833.833 0 0 1-.527.503.832.832 0 0 1-.721-.1 2.245 2.245 0 0 1-1.001-1.872V15a.75.75 0 0 0-.75-.75H6.097c-.696 0-1.618-.127-2.056-.735-.356-.495-.386-1.306-.078-2.227l1.999-6c.355-1.067.578-1.539 2.134-1.539H16v8.5a.752.752 0 0 0-.711.516Zm4.96-1.265a.75.75 0 0 1-.75.75h-2v-8.5h2a.75.75 0 0 1 .75.75v7Z"/>
</svg>
