<svg xmlns="http://www.w3.org/2000/svg" width="24" height="24" fill="none" viewBox="0 0 24 24">
  <path fill="#000" fill-opacity=".45" d="M21.23 13.868c-1.317 2.196-4.27 5.882-9.23 5.882a9.343 9.343 0 0 1-2.826-.435.75.75 0 1 1 .453-1.43A7.856 7.856 0 0 0 12 18.25c4.222 0 6.79-3.23 7.944-5.156a2.111 2.111 0 0 0 .002-2.187 13.598 13.598 0 0 0-1.226-1.728.751.751 0 0 1 1.155-.959 15.1 15.1 0 0 1 1.358 1.917 3.599 3.599 0 0 1-.004 3.73Zm-11.167 1.13L3.53 21.531a.748.748 0 0 1-1.06 0 .75.75 0 0 1 0-1.061l3.175-3.175a14.48 14.48 0 0 1-2.876-3.429 3.602 3.602 0 0 1 .002-3.733c1.316-2.196 4.27-5.882 9.23-5.882 1.834 0 3.564.519 5.154 1.534L20.47 2.47a.75.75 0 0 1 1.061 1.061L10.065 14.997v.001h-.002Zm-.454-1.667 3.722-3.722a2.695 2.695 0 0 0-1.33-.358 2.752 2.752 0 0 0-2.75 2.75c0 .477.132.928.358 1.33Zm-2.902 2.901L8.52 14.42a4.184 4.184 0 0 1-.768-2.421 4.255 4.255 0 0 1 4.25-4.25c.883 0 1.717.273 2.42.768l1.631-1.631c-1.265-.741-2.62-1.138-4.052-1.138-4.222 0-6.79 3.23-7.944 5.156a2.111 2.111 0 0 0-.002 2.187c.537.897 1.43 2.11 2.653 3.141Zm8.001-3.797a2.746 2.746 0 0 1-2.272 2.274.75.75 0 0 0 .228 1.482 4.203 4.203 0 0 0 3.526-3.527.75.75 0 0 0-.627-.856.756.756 0 0 0-.855.627Z"/>
</svg>
