<svg xmlns="http://www.w3.org/2000/svg" width="24" height="24" fill="none" viewBox="0 0 24 24">
  <path fill="#000" fill-opacity=".45" d="M18.5 10.75h-13c-1.409 0-2.25-.841-2.25-2.25v-3c0-1.409.841-2.25 2.25-2.25h13c1.409 0 2.25.841 2.25 2.25v3c0 1.409-.841 2.25-2.25 2.25Zm-13-6c-.589 0-.75.161-.75.75v3c0 .589.161.75.75.75h13c.589 0 .75-.161.75-.75v-3c0-.589-.161-.75-.75-.75h-13Zm13 16h-13c-1.409 0-2.25-.841-2.25-2.25v-3c0-1.409.841-2.25 2.25-2.25h13c1.409 0 2.25.841 2.25 2.25v3c0 1.409-.841 2.25-2.25 2.25Zm-13-6c-.589 0-.75.161-.75.75v3c0 .589.161.75.75.75h13c.589 0 .75-.161.75-.75v-3c0-.589-.161-.75-.75-.75h-13Z"/>
</svg>
