<svg xmlns="http://www.w3.org/2000/svg" width="24" height="24" fill="none" viewBox="0 0 24 24">
  <path fill="#000" fill-opacity=".45" d="M21.339 7.128c.458 1.341.535 2.892.226 4.486-1.23 6.356-8.928 9.921-9.255 10.07a.75.75 0 0 1-.623-.001c-.061-.028-1.503-.693-3.26-1.929a.75.75 0 0 1 .864-1.227 22.703 22.703 0 0 0 2.708 1.638c1.406-.716 7.14-3.913 8.093-8.837.26-1.338.2-2.622-.173-3.715a.75.75 0 1 1 1.42-.485Zm.19-3.598-18 18a.748.748 0 0 1-1.06 0 .75.75 0 0 1 0-1.061l3.143-3.142c-1.716-1.784-2.788-3.703-3.18-5.715-.476-2.464.003-4.865 1.28-6.423 1.036-1.26 2.523-1.931 4.303-1.94h.019c2.038 0 3.278 1.159 3.966 2.144.687-.985 1.928-2.144 3.964-2.144h.019c1.113.009 2.089.28 2.928.78l1.56-1.56A.75.75 0 1 1 21.53 3.53ZM6.672 16.268 17.8 5.138a4.417 4.417 0 0 0-1.828-.388h-.012c-2.374 0-3.217 2.379-3.251 2.48a.753.753 0 0 1-.71.509h-.004a.75.75 0 0 1-.71-.511c-.032-.098-.875-2.477-3.253-2.477H8.02c-1.337.007-2.396.475-3.15 1.392-.997 1.217-1.358 3.155-.966 5.186.334 1.713 1.266 3.372 2.766 4.939Z"/>
</svg>
