<svg xmlns="http://www.w3.org/2000/svg" width="24" height="24" fill="none" viewBox="0 0 24 24">
  <path fill="#000" fill-opacity=".45" d="M20.747 8.483 14.065 2.99a3.26 3.26 0 0 0-4.13 0L3.251 8.483a2.754 2.754 0 0 0-.959 2.617l1.455 7.983a3.25 3.25 0 0 0 3.198 2.667H17.05a3.25 3.25 0 0 0 3.198-2.667l1.455-7.983a2.748 2.748 0 0 0-.957-2.617Zm-.518 2.348-1.455 7.983a1.75 1.75 0 0 1-1.722 1.436H6.947a1.75 1.75 0 0 1-1.722-1.436L3.77 10.832a1.248 1.248 0 0 1 .436-1.19l6.682-5.493A1.747 1.747 0 0 1 12 3.752c.395 0 .79.132 1.112.397l6.682 5.493c.35.288.517.743.435 1.19Zm-5.748 4.09a3.645 3.645 0 0 0 .602-2.005 3.672 3.672 0 0 0-3.666-3.667 3.671 3.671 0 0 0-3.667 3.667 3.671 3.671 0 0 0 3.667 3.667c.74 0 1.427-.224 2.003-.603l1.55 1.55a.748.748 0 0 0 1.06 0 .75.75 0 0 0 0-1.062l-1.55-1.548Zm-5.23-2.004a2.17 2.17 0 0 1 2.166-2.167 2.17 2.17 0 0 1 2.166 2.167 2.17 2.17 0 0 1-2.166 2.167 2.17 2.17 0 0 1-2.167-2.167Z"/>
</svg>
