<svg xmlns="http://www.w3.org/2000/svg" width="24" height="24" fill="none" viewBox="0 0 24 24">
  <path fill="#000" fill-opacity=".45" d="m21.477 9.085-7.412-6.096a3.26 3.26 0 0 0-4.13 0l-7.41 6.095a.751.751 0 0 0 .953 1.16l.773-.637V18c0 2.418 1.332 3.75 3.75 3.75h8c2.418 0 3.75-1.332 3.75-3.75V9.607l.773.636a.749.749 0 0 0 1.056-.102.75.75 0 0 0-.102-1.056ZM18.25 18c0 1.577-.673 2.25-2.25 2.25H8c-1.577 0-2.25-.673-2.25-2.25V8.374l5.139-4.225a1.755 1.755 0 0 1 2.223 0l5.139 4.226V18h-.001Zm-8.022-8.25c-.923.004-1.697.356-2.24 1.018-.65.795-.887 1.95-.648 3.17.589 3.013 4.199 4.676 4.353 4.745a.753.753 0 0 0 .618 0c.153-.069 3.764-1.732 4.353-4.746.238-1.22 0-2.376-.65-3.17-.541-.661-1.315-1.013-2.24-1.017h-.013a2.46 2.46 0 0 0-1.758.716c-.415-.402-.98-.754-1.775-.716Zm2.48 2.314c.03-.083.314-.814 1.05-.814h.006c.47.002.835.16 1.088.468.36.441.487 1.163.337 1.932-.355 1.818-2.4 3.083-3.188 3.51-.788-.426-2.833-1.691-3.188-3.51-.15-.768-.024-1.49.337-1.93.253-.309.619-.467 1.087-.469h.005c.737 0 1.02.73 1.049.807a.75.75 0 0 0 .704.508h.008a.76.76 0 0 0 .706-.502Z"/>
</svg>
