<svg xmlns="http://www.w3.org/2000/svg" width="24" height="24" fill="none" viewBox="0 0 24 24">
  <path fill="#000" fill-opacity=".45" d="M10.88 13.87a.744.744 0 0 1-.53-.22 4.666 4.666 0 0 1-.474-6.095 3.69 3.69 0 0 1 .473-.565l3.36-3.361a4.678 4.678 0 0 1 3.33-1.38 4.68 4.68 0 0 1 3.329 1.379 4.716 4.716 0 0 1 0 6.661l-1.84 1.84a.75.75 0 0 1-1.061-1.061l1.84-1.84a3.215 3.215 0 0 0 0-4.54c-1.214-1.213-3.326-1.212-4.538 0l-3.36 3.36a2.389 2.389 0 0 0-.3.358c-.962 1.311-.825 3.055.3 4.181a.75.75 0 0 1-.53 1.283Zm-3.92 7.88a4.68 4.68 0 0 1-3.328-1.379 4.716 4.716 0 0 1 0-6.661l1.84-1.84a.75.75 0 0 1 1.06 1.061l-1.84 1.84a3.215 3.215 0 0 0 0 4.54c1.215 1.213 3.327 1.212 4.539 0l3.359-3.36c.346-.346.604-.757.749-1.188a3.174 3.174 0 0 0-.75-3.352.75.75 0 0 1 1.062-1.061 4.714 4.714 0 0 1 1.105 4.904 4.58 4.58 0 0 1-1.105 1.757l-3.36 3.36a4.685 4.685 0 0 1-3.33 1.379Z"/>
</svg>
