<svg xmlns="http://www.w3.org/2000/svg" width="24" height="24" fill="none" viewBox="0 0 24 24">
  <path fill="#000" fill-opacity=".45" d="m21.237 15.177-2.414-2.414a.748.748 0 0 1-.197-.348l-1.423-5.691a3.75 3.75 0 0 0-3.018-2.789l-9.92-1.664a1.724 1.724 0 0 0-1.463.46c-.014.012-.03.016-.044.029-.013.013-.018.031-.03.045a1.737 1.737 0 0 0-.458 1.472l1.663 9.91a3.75 3.75 0 0 0 2.79 3.017l5.69 1.423a.756.756 0 0 1 .35.197l2.412 2.413c.331.331.77.513 1.237.513.468 0 .907-.182 1.237-.513l3.586-3.586a1.748 1.748 0 0 0 .002-2.474ZM5.415 13.938 3.91 4.969l4.658 4.658a1.48 1.48 0 0 0-.052.373c0 .828.676 1.5 1.505 1.5a1.5 1.5 0 1 0 0-3h-.01a1.47 1.47 0 0 0-.39.058L4.971 3.91l8.968 1.505a2.251 2.251 0 0 1 1.811 1.673l1.421 5.682-4.4 4.4-5.682-1.42a2.252 2.252 0 0 1-1.675-1.812Zm14.762 2.653-3.586 3.586c-.127.127-.225.127-.353 0L14.061 18l3.94-3.939 2.176 2.177a.25.25 0 0 1 0 .353Z"/>
</svg>
