<svg xmlns="http://www.w3.org/2000/svg" width="24" height="24" fill="none" viewBox="0 0 24 24">
  <path fill="#000" fill-opacity=".45" d="M14.463 14.621a.75.75 0 0 0-1.05-.268c-.832.519-1.994.519-2.826 0a.747.747 0 0 0-1.05.268l-2.44 4.32c-.17.302-.21.664-.112.993.097.323.313.586.61.742A9.513 9.513 0 0 0 12 21.75a9.5 9.5 0 0 0 4.404-1.074v-.001a1.21 1.21 0 0 0 .61-.741 1.287 1.287 0 0 0-.112-.993l-2.44-4.32Zm-5.938 4.842 1.97-3.489a4.296 4.296 0 0 0 3.01 0l1.97 3.489a8.103 8.103 0 0 1-6.95 0Zm8.84-16.007a1.232 1.232 0 0 0-.967-.172 1.262 1.262 0 0 0-.802.606l-2.63 4.64a.75.75 0 0 0 .302 1.033c.869.459 1.419 1.303 1.472 2.258.022.397.37.708.77.708h4.979c.35 0 .688-.146.926-.401.232-.25.354-.585.333-.923-.18-3.13-1.815-6.026-4.383-7.749Zm-1.23 7.574a4.277 4.277 0 0 0-1.516-2.371l2.147-3.792c1.973 1.427 3.249 3.696 3.465 6.163h-4.095Zm-6.875.791c.053-.955.603-1.8 1.47-2.258a.75.75 0 0 0 .303-1.033L8.405 3.892a1.263 1.263 0 0 0-.803-.608 1.228 1.228 0 0 0-.97.173c-2.564 1.722-4.202 4.619-4.38 7.742-.022.34.099.678.333.929.238.255.576.401.926.401h5a.75.75 0 0 0 .749-.708Zm-5.491-.791c.216-2.467 1.493-4.737 3.465-6.163L9.38 8.659a4.277 4.277 0 0 0-1.517 2.37H3.769Zm8.23-.28a1.25 1.25 0 1 1 0 2.5 1.25 1.25 0 0 1 0-2.5Z"/>
</svg>
