<svg xmlns="http://www.w3.org/2000/svg" width="24" height="24" fill="none" viewBox="0 0 24 24">
  <path fill="#000" fill-opacity=".45" d="M16.854 21.75c-.29 0-.58-.069-.848-.21l-3.888-2.035a.253.253 0 0 0-.236 0l-3.885 2.033a1.814 1.814 0 0 1-1.921-.142 1.81 1.81 0 0 1-.723-1.779l.74-4.301a.249.249 0 0 0-.07-.22L2.782 11.95a1.737 1.737 0 0 1-.445-1.793 1.74 1.74 0 0 1 1.415-1.193l4.482-.648a.25.25 0 0 0 .188-.136l1.943-3.918a1.813 1.813 0 0 1 1.634-1.013c.698 0 1.324.388 1.634 1.013l1.942 3.917a.252.252 0 0 0 .189.137l4.482.648a1.738 1.738 0 0 1 1.415 1.193 1.737 1.737 0 0 1-.445 1.793l-3.24 3.145a.247.247 0 0 0-.072.221l.741 4.303a1.805 1.805 0 0 1-.722 1.777 1.797 1.797 0 0 1-1.07.354ZM12 17.976c.279 0 .559.066.813.199L16.7 20.21a.31.31 0 0 0 .34-.025.304.304 0 0 0 .127-.31l-.741-4.304c-.098-.57.092-1.15.507-1.552l3.239-3.144a.236.236 0 0 0 .063-.254.242.242 0 0 0-.203-.171l-4.482-.648a1.748 1.748 0 0 1-1.319-.956l-1.94-3.916a.31.31 0 0 0-.29-.179.31.31 0 0 0-.29.179L9.769 8.847a1.746 1.746 0 0 1-1.318.955l-4.482.648a.24.24 0 0 0-.203.171.238.238 0 0 0 .063.254l3.24 3.145c.414.401.604.981.506 1.551l-.741 4.301a.308.308 0 0 0 .127.312.315.315 0 0 0 .343.025l3.885-2.033c.252-.133.532-.2.81-.2Z"/>
</svg>
