<svg xmlns="http://www.w3.org/2000/svg" width="24" height="24" fill="none" viewBox="0 0 24 24">
  <path fill="#000" fill-opacity=".45" d="m21.448 7.646-2.462-4.271a2.226 2.226 0 0 0-1.365-1.048 2.224 2.224 0 0 0-1.705.225L14.172 3.56a2.23 2.23 0 0 0-1.08 1.585l-9.648 6.566a2.761 2.761 0 0 0-.825 3.644l.258.447a2.755 2.755 0 0 0 3.566 1.115l3.853-1.841-2.939 5.575a.75.75 0 1 0 1.326.7l3.32-6.296 3.343 6.297a.75.75 0 0 0 1.325-.703l-3.649-6.875 3.97-1.896c.064.024.124.054.192.072a2.232 2.232 0 0 0 1.705-.225l1.74-1.006c1.07-.621 1.438-2 .82-3.073Zm-12.206 6.27-1.804-3.11 5.977-4.068 2.343 4.064-6.516 3.114Zm-3.447 1.647a1.248 1.248 0 0 1-1.618-.508l-.26-.451a1.255 1.255 0 0 1 .372-1.654l1.907-1.298 1.69 2.912-2.09.999Zm14.08-6.143-1.74 1.005a.726.726 0 0 1-.566.075.744.744 0 0 1-.454-.348l-2.464-4.275a.748.748 0 0 1 .272-1.02l1.744-1.007a.732.732 0 0 1 .566-.075.744.744 0 0 1 .454.348l2.462 4.271a.754.754 0 0 1-.274 1.026Z"/>
</svg>
