<svg xmlns="http://www.w3.org/2000/svg" width="24" height="24" fill="none" viewBox="0 0 24 24">
  <path fill="#000" fill-opacity=".45" d="M19.414 21.75H5.415a.75.75 0 0 1 0-1.5h14a.75.75 0 0 1 0 1.5ZM17.335 16v-4.25h1.673c.718 0 1.352-.431 1.617-1.097a1.729 1.729 0 0 0-.423-1.907l-6.274-5.928a2.08 2.08 0 0 0-2.855 0L4.8 8.746a1.732 1.732 0 0 0-.423 1.908 1.73 1.73 0 0 0 1.617 1.097h1.843V16c0 .965.785 1.75 1.75 1.75h6c.964 0 1.75-.785 1.75-1.75ZM5.992 10.25a.225.225 0 0 1-.223-.151.225.225 0 0 1 .058-.263l6.274-5.928a.58.58 0 0 1 .797 0l6.274 5.928a.225.225 0 0 1 .058.263.224.224 0 0 1-.223.151h-2.423a.753.753 0 0 0-.75.75v5a.25.25 0 0 1-.25.25h-6a.25.25 0 0 1-.25-.25v-5a.749.749 0 0 0-.75-.75H5.992Z"/>
</svg>
