<svg xmlns="http://www.w3.org/2000/svg" width="24" height="24" fill="none" viewBox="0 0 24 24">
  <path fill="#000" fill-opacity=".45" d="M19.75 18.02c0 2.405-1.332 3.73-3.75 3.73H8c-.39 0-.751-.036-1.072-.108a.75.75 0 1 1 .325-1.464c.213.047.47.072.748.072h8c1.577 0 2.25-.667 2.25-2.23 0-.88-.246-3.784-3.411-4.217a.751.751 0 0 1 .203-1.487c3.474.476 4.707 3.37 4.707 5.704Zm1.78-14.49-19 19a.748.748 0 0 1-1.06 0 .75.75 0 0 1 0-1.061l2.842-2.842c-.024-.201-.062-.391-.062-.607 0-2.662 1.506-5.77 5.75-5.77h.689l1.52-1.52c-.068.003-.132.02-.201.02a4.255 4.255 0 0 1-4.25-4.25 4.255 4.255 0 0 1 4.25-4.25 4.255 4.255 0 0 1 4.25 4.25c0 .069-.017.133-.02.201l4.23-4.231a.75.75 0 0 1 1.062 1.06Zm-9.521 5.72a2.752 2.752 0 0 0 2.75-2.75 2.752 2.752 0 0 0-2.75-2.75 2.752 2.752 0 0 0-2.75 2.75 2.752 2.752 0 0 0 2.75 2.75Zm-6.18 7.861 3.293-3.293c-2.378.346-3.092 2.081-3.293 3.293Z"/>
</svg>
