<svg xmlns="http://www.w3.org/2000/svg" width="24" height="24" fill="none" viewBox="0 0 24 24">
  <path fill="#000" fill-opacity=".45" d="m16.602 18.537 1.929 1.934a.75.75 0 0 1-1.062 1.059l-2.218-2.224a7.96 7.96 0 0 1-6.5 0L6.53 21.53a.75.75 0 0 1-1.061-1.06l1.93-1.933A7.986 7.986 0 0 1 4.002 12a8 8 0 0 1 16 0 7.993 7.993 0 0 1-3.4 6.537ZM5.53 2.47a.75.75 0 0 0-1.061 0l-2 2a.75.75 0 0 0 1.06 1.06l2-2a.75.75 0 0 0 0-1.06Zm15.995 1.994-2-1.96a.751.751 0 0 0-1.051 1.072l2 1.96a.748.748 0 0 0 1.06-.011.751.751 0 0 0-.01-1.061Z"/>
</svg>
