<svg xmlns="http://www.w3.org/2000/svg" width="24" height="24" fill="none" viewBox="0 0 24 24">
  <path fill="#000" fill-opacity=".45" fill-rule="evenodd" d="M21.536 5.525a.749.749 0 0 1-1.061.01l-2-1.96a.751.751 0 0 1 1.05-1.072l2 1.96c.295.29.3.766.01 1.062ZM5.53 2.47a.75.75 0 0 0-1.061 0l-2 2a.75.75 0 0 0 1.06 1.06l2-2a.75.75 0 0 0 0-1.06Zm11.073 16.067 1.929 1.934a.75.75 0 0 1-1.062 1.059l-2.218-2.224a7.96 7.96 0 0 1-6.5 0l-2.22 2.224a.75.75 0 0 1-1.061-1.06L7.4 18.537A7.984 7.984 0 0 1 4.002 12a8 8 0 0 1 16 0 7.992 7.992 0 0 1-3.4 6.537ZM14.5 12.75a.75.75 0 0 0 0-1.5h-1.75V9.5a.75.75 0 0 0-1.5 0v1.75H9.5a.75.75 0 0 0 0 1.5h1.75v1.75a.75.75 0 0 0 1.5 0v-1.75h1.75Z" clip-rule="evenodd"/>
</svg>
