<svg xmlns="http://www.w3.org/2000/svg" width="24" height="24" fill="none" viewBox="0 0 24 24">
  <path fill="#000" fill-opacity=".45" d="M15.773 11.266A.3.3 0 0 0 16 10.98V6.81c0-.7-.48-1.31-1.16-1.46l-10-2.31C3.9 2.82 3 3.54 3 4.5V19c0 .08 0 .16.01.23.07 1.1.66 1.69 1.76 1.76.07.01.15.01.23.01h2.2a.3.3 0 0 0 .3-.3v-3.593c0-.996.68-1.92 1.664-2.08A2.001 2.001 0 0 1 11.5 17v3.7a.3.3 0 0 0 .3.3h1.567c.263 0 .386-.304.214-.503A2.288 2.288 0 0 1 13 18.97v-4.94c0-1.314 1.056-2.315 2.773-2.765ZM8 12.75H7a.75.75 0 0 1 0-1.5h1a.75.75 0 0 1 0 1.5Zm0-3H7a.75.75 0 0 1 0-1.5h1a.75.75 0 0 1 0 1.5Zm4 3h-1a.75.75 0 0 1 0-1.5h1a.75.75 0 0 1 0 1.5Zm0-3h-1a.75.75 0 0 1 0-1.5h1a.75.75 0 0 1 0 1.5Zm6 9.71c1.74 0 3.13-.42 4-1.12v.63c0 1.36-2 2.03-4 2.03s-4-.67-4-2.03v-.63c.87.7 2.26 1.12 4 1.12Zm0-2.4c1.74 0 3.13-.42 4-1.12v.49c0 1.37-2 2.03-4 2.03s-4-.66-4-2.03v-.49c.88.7 2.27 1.12 4 1.12ZM18 12c2 0 4 .68 4 2.03 0 1.36-2 2.03-4 2.03s-4-.67-4-2.03c0-1.35 2-2.03 4-2.03Z"/>
</svg>
