<svg xmlns="http://www.w3.org/2000/svg" width="24" height="24" fill="none" viewBox="0 0 24 24">
  <path fill="#000" fill-opacity=".45" d="M21.53 2.47a.75.75 0 0 0-1.061 0L16.939 6h-.94l-.66-1.97c-.2-.62-.78-1.03-1.42-1.03h-3.84c-.64 0-1.22.41-1.42 1.03L8 6H6C4 6 3 7 3 9v8c0 .979.244 1.714.724 2.217L2.47 20.47a.75.75 0 0 0 1.06 1.06l18-18a.75.75 0 0 0 0-1.06ZM9 13a2.996 2.996 0 0 1 3.825-2.885l-3.71 3.71A3.005 3.005 0 0 1 9 13Zm11.867-5.141c.089.334.133.716.133 1.14v8c0 2-1 3-3 3H8.722c-.182 0-.458-.263-.16-.561l3.359-3.36a.29.29 0 0 1 .193-.081A3 3 0 0 0 15 12.999l5.313-5.313c.26-.26.503-.02.554.173Z"/>
</svg>
