<svg xmlns="http://www.w3.org/2000/svg" width="24" height="24" fill="none" viewBox="0 0 24 24">
  <path fill="#000" fill-opacity=".45" d="M10.621 3.103c-3.3.49-6.12 2.86-7.156 6.034-.767 2.349-.53 4.686.369 6.62.21.44.21.95.06 1.42l-.84 2.499a1.003 1.003 0 0 0 1.27 1.27l2.5-.84c.47-.15.98-.15 1.419.06 1.14.53 2.42.83 3.759.83.503 0 .999-.04 1.478-.118a.298.298 0 0 0 .229-.384 5.514 5.514 0 0 1-.196-1.864c.176-2.7 2.42-4.945 5.121-5.121a5.516 5.516 0 0 1 1.864.196c.173.049.354-.052.384-.23A9.1 9.1 0 0 0 21 11.999c0-5.422-4.798-9.725-10.379-8.895ZM8.021 13a1.005 1.005 0 0 1-1.006-1c0-.552.443-1 .995-1h.01a1 1 0 1 1 0 2Zm4 0a1.005 1.005 0 0 1-1.006-1c0-.552.443-1 .995-1h.01a1 1 0 1 1 0 2Zm4 0a1.005 1.005 0 0 1-1.006-1c0-.552.443-1 .995-1h.01a1 1 0 1 1 0 2Zm5.729 5.5a.75.75 0 0 1-.75.75h-1.75V21a.75.75 0 0 1-1.5 0v-1.75H16a.75.75 0 0 1 0-1.5h1.75V16a.75.75 0 0 1 1.5 0v1.75H21a.75.75 0 0 1 .75.75Z"/>
</svg>
