<svg xmlns="http://www.w3.org/2000/svg" width="24" height="24" fill="none" viewBox="0 0 24 24">
  <path fill="#000" fill-opacity=".45" d="M21.738 16.65a.75.75 0 0 1-.608.869l-10.67 1.878A2.498 2.498 0 0 1 8 21.5 2.503 2.503 0 0 1 5.5 19c0-1.117.741-2.054 1.753-2.374L5.171 4.78a1.258 1.258 0 0 0-1.453-1.012l-.594.1a.75.75 0 1 1-.25-1.479l.59-.1a2.762 2.762 0 0 1 3.184 2.23l2.13 12.116c.643.212 1.17.674 1.463 1.276l10.63-1.871a.75.75 0 0 1 .867.61ZM9.572 9.088c-.363-2.06.435-3.2 2.494-3.562l3.634-.641c2.06-.363 3.2.435 3.562 2.494l.641 3.634c.363 2.059-.435 3.199-2.494 3.562l-3.634.64c-2.059.364-3.199-.434-3.562-2.493l-.64-3.634Zm3.342 2.329 1.73 1.218c.032.023.07.035.104.052.03.014.055.032.086.042a.7.7 0 0 0 .23.04c.003 0 .006.003.01.003a.734.734 0 0 0 .131-.012c.047-.01.085-.034.128-.051.037-.014.073-.022.108-.042a.75.75 0 0 0 .236-.204c.003-.004.008-.005.011-.01l1.227-1.74a.75.75 0 0 0-1.227-.863l-.188.267-.382-2.165a.749.749 0 1 0-1.476.26l.38 2.148-.242-.17a.75.75 0 0 0-.866 1.227Z"/>
</svg>
