<svg xmlns="http://www.w3.org/2000/svg" width="24" height="24" fill="none" viewBox="0 0 24 24">
  <path fill="#000" fill-opacity=".45" fill-rule="evenodd" d="M20.27 9.062 13.588 3.57a2.501 2.501 0 0 0-3.177 0L3.729 9.062a1.996 1.996 0 0 0-.697 1.903l1.455 7.982A2.5 2.5 0 0 0 6.946 21h10.106a2.5 2.5 0 0 0 2.459-2.052l1.455-7.983a1.993 1.993 0 0 0-.696-1.902Zm-4.77 3.994c0 2.667-2.188 4-3.5 4.444-1.312-.444-3.5-1.778-3.5-4.444v-2.222c1.75-.502 2.625-.889 3.507-1.333.868.444 1.743.831 3.493 1.275v2.28Z" clip-rule="evenodd"/>
</svg>
