<svg xmlns="http://www.w3.org/2000/svg" width="24" height="24" fill="none" viewBox="0 0 24 24">
  <path fill="#000" fill-opacity=".45" d="m21.477 9.085-7.412-6.096a3.26 3.26 0 0 0-4.13 0l-7.41 6.095a.751.751 0 0 0 .953 1.159L4.5 9.4V18c0 2.29 1.21 3.5 3.5 3.5h8c2.29 0 3.5-1.21 3.5-3.5V9.402l1.023.842a.75.75 0 0 0 1.056-.102.751.751 0 0 0-.102-1.057Zm-4.947 3.932-2.235 2.235a1.54 1.54 0 0 1-1.095.454h-.001c-.413 0-.802-.161-1.095-.453l-1.271-1.27-2.304 2.233a.748.748 0 0 1-1.06 0 .75.75 0 0 1 0-1.061L9.7 12.923a1.553 1.553 0 0 1 2.19-.001l1.272 1.269 2.306-2.235a.75.75 0 0 1 1.06 1.06Z"/>
</svg>
