<svg xmlns="http://www.w3.org/2000/svg" width="24" height="24" fill="none" viewBox="0 0 24 24">
  <path fill="#000" fill-opacity=".45" fill-rule="evenodd" d="m19.57 8.586-5.964-5a2.5 2.5 0 0 0-3.213 0l-5.964 5c-.906.76-1.43 1.067-1.43 3.065v6.35c0 2 1 3 3 3h12c2 0 3-1 3-3v-6.35c.001-1.999-.522-2.305-1.43-3.065Zm-5.72 7.612a2.194 2.194 0 0 1-1.1.61V17a.75.75 0 0 1-1.5 0v-.195a2.236 2.236 0 0 1-1.736-1.945.75.75 0 1 1 1.49-.165c.042.38.352.666.721.666h.551a.708.708 0 0 0 .506-.216.751.751 0 0 0 .219-.532.747.747 0 0 0-.552-.727l-1.267-.319a2.245 2.245 0 0 1-1.682-2.18c0-1.075.751-1.973 1.75-2.194V9a.75.75 0 0 1 1.5 0v.195a2.236 2.236 0 0 1 1.736 1.945.75.75 0 0 1-.663.828.76.76 0 0 1-.827-.663.735.735 0 0 0-.721-.666h-.551a.738.738 0 0 0-.725.748.75.75 0 0 0 .551.727l1.267.32a2.246 2.246 0 0 1 1.682 2.18 2.235 2.235 0 0 1-.649 1.584Z" clip-rule="evenodd"/>
</svg>
