<svg xmlns="http://www.w3.org/2000/svg" width="24" height="24" fill="none" viewBox="0 0 24 24">
  <path fill="#000" fill-opacity=".45" d="m21.477 9.085-7.412-6.096a3.26 3.26 0 0 0-4.13 0l-7.41 6.095a.751.751 0 0 0 .953 1.159L4.5 9.4V18c0 2.29 1.21 3.5 3.5 3.5h8c2.29 0 3.5-1.21 3.5-3.5V9.402l1.023.842a.75.75 0 0 0 1.056-.102.751.751 0 0 0-.102-1.057Zm-7.627 7.613a2.194 2.194 0 0 1-1.1.609v.193a.75.75 0 0 1-1.5 0v-.195a2.235 2.235 0 0 1-1.736-1.945.75.75 0 0 1 .663-.828.757.757 0 0 1 .827.663c.042.38.352.666.72.666h.552a.708.708 0 0 0 .506-.216.751.751 0 0 0 .219-.532.747.747 0 0 0-.552-.727l-1.267-.32a2.244 2.244 0 0 1-1.682-2.18c0-1.074.75-1.972 1.75-2.193V9.5a.75.75 0 0 1 1.5 0v.195a2.236 2.236 0 0 1 1.736 1.945.75.75 0 0 1-.663.828.758.758 0 0 1-.827-.663.735.735 0 0 0-.721-.666h-.551a.738.738 0 0 0-.725.748.75.75 0 0 0 .55.727l1.268.319a2.246 2.246 0 0 1 1.682 2.18 2.235 2.235 0 0 1-.65 1.585Z"/>
</svg>
