<svg xmlns="http://www.w3.org/2000/svg" width="24" height="24" fill="none" viewBox="0 0 24 24">
  <path fill="#000" fill-opacity=".45" fill-rule="evenodd" d="m19.57 8.586-5.964-5a2.5 2.5 0 0 0-3.213 0l-5.964 5c-.906.76-1.43 1.067-1.43 3.065v6.35c0 2 1 3 3 3h12c2 0 3-1 3-3v-6.35c.001-1.999-.522-2.305-1.43-3.065ZM12 8.5c1.186 0 2.15.964 2.15 2.15S13.185 12.8 12 12.8a2.152 2.152 0 0 1-2.15-2.15c0-1.186.964-2.15 2.15-2.15Zm3.5 8.5a.5.5 0 0 1-.5.5H9a.5.5 0 0 1-.5-.5v-.303c0-1.34.981-2.697 2.858-2.697h1.283c1.877 0 2.858 1.356 2.858 2.697V17h.001Z" clip-rule="evenodd"/>
</svg>
