<svg xmlns="http://www.w3.org/2000/svg" width="24" height="24" fill="none" viewBox="0 0 24 24">
  <path fill="#000" fill-opacity=".45" fill-rule="evenodd" d="m19.57 8.586-5.964-5a2.5 2.5 0 0 0-3.213 0l-5.964 5c-.906.76-1.43 1.067-1.43 3.065v6.35c0 2 1 3 3 3h12c2 0 3-1 3-3v-6.35c.001-1.999-.522-2.305-1.43-3.065Zm-2.82 6.227a.75.75 0 0 1-1.5 0v-.69l-1.559 1.558c-.543.544-1.493.544-2.038 0l-1.179-1.18-1.944 2.027a.748.748 0 0 1-1.06 0 .75.75 0 0 1 0-1.06l2.027-2.028c.544-.544 1.495-.544 2.039 0l1.178 1.18 1.513-1.559H13.5a.75.75 0 0 1 0-1.5H16a.75.75 0 0 1 .693.464.75.75 0 0 1 .058.287v2.501h-.001Z" clip-rule="evenodd"/>
</svg>
