<svg xmlns="http://www.w3.org/2000/svg" width="24" height="24" fill="none" viewBox="0 0 24 24">
  <path fill="#000" fill-opacity=".45" d="M12.723 15.01a.5.5 0 0 1 .104-.544l2.64-2.64a.501.501 0 0 1 .854.354.606.606 0 0 1-.021.159 4.503 4.503 0 0 1-2.96 2.958.507.507 0 0 1-.618-.286ZM19 10.25a.75.75 0 0 0-.75.75A6.257 6.257 0 0 1 12 17.25a6.07 6.07 0 0 1-1.575-.205.751.751 0 0 0-.39 1.449c.396.106.803.167 1.215.207V21a.75.75 0 0 0 1.5 0v-2.288c3.923-.378 7-3.692 7-7.712a.75.75 0 0 0-.75-.75Zm2.53-7.78a.75.75 0 0 0-1.061 0l-4.021 4.02C16.19 4.253 14.305 2.5 12 2.5c-1.19 0-2.32.47-3.19 1.32C7.97 4.68 7.5 5.81 7.5 7v4c0 1.187.475 2.309 1.3 3.138l-1.25 1.25A6.212 6.212 0 0 1 5.75 11a.75.75 0 0 0-1.5 0 7.7 7.7 0 0 0 2.24 5.449l-4.02 4.02a.75.75 0 0 0 1.06 1.062l18-18a.75.75 0 0 0 0-1.061Z"/>
</svg>
