<svg xmlns="http://www.w3.org/2000/svg" width="24" height="24" fill="none" viewBox="0 0 24 24">
  <path fill="#000" fill-opacity=".45" d="m17.625 14.174 2.643 1.576c.546.326.828.96.703 1.584-.51 2.559-3.08 4.199-5.598 3.508A17.442 17.442 0 0 1 3.16 8.635c-.692-2.518.946-5.09 3.506-5.602l.017-.003a1.502 1.502 0 0 1 1.587.707l1.563 2.639a2.05 2.05 0 0 1-.629 2.752l-1.66 1.105a11.603 11.603 0 0 0 6.21 6.226l1.115-1.665a2.053 2.053 0 0 1 2.757-.62Zm2.125-4.79a.75.75 0 0 0-.75-.75h-1.913c.4-.405.881-.891 1.422-1.433 1.158-1.162 1.298-2.78.323-3.761-.626-.632-1.469-.912-2.32-.768-.834.142-1.54.664-1.89 1.396a.75.75 0 0 0 1.355.645c.137-.287.438-.503.786-.562.257-.044.641-.02 1.004.345.381.385.246 1.077-.32 1.646a364.64 364.64 0 0 0-2.686 2.72.747.747 0 0 0-.152.815.75.75 0 0 0 .69.458H19a.75.75 0 0 0 .751-.75Z"/>
</svg>
