<svg xmlns="http://www.w3.org/2000/svg" width="24" height="24" fill="none" viewBox="0 0 24 24">
  <path fill="#000" fill-opacity=".45" d="M16.06 20.01a8.826 8.826 0 0 1-8.12 0c-.25-.13-.33-.45-.19-.7l2.44-4.32c.53.33 1.15.51 1.81.51.66 0 1.28-.18 1.81-.51l2.44 4.32c.14.25.06.57-.19.7Zm.89-15.93a.492.492 0 0 0-.7.18L13.62 8.9c1.06.56 1.8 1.63 1.87 2.88h4.997c.29 0 .53-.24.51-.53-.169-3-1.739-5.62-4.049-7.17Zm-9.199.18a.492.492 0 0 0-.7-.18c-2.31 1.55-3.88 4.17-4.049 7.17-.02.29.22.53.51.53h5c.07-1.25.81-2.32 1.87-2.88l-2.63-4.64Zm4.25 6.49a1.25 1.25 0 1 0 0 2.5 1.25 1.25 0 0 0 0-2.5Z"/>
</svg>
