<svg xmlns="http://www.w3.org/2000/svg" width="24" height="24" fill="none" viewBox="0 0 24 24">
  <path fill="#000" fill-opacity=".45" d="M9.02 22.25c-.688 0-1.254-.56-1.254-1.25s.555-1.25 1.245-1.25h.01a1.25 1.25 0 0 1 0 2.5ZM18.27 21c0-.69-.56-1.25-1.25-1.25h-.01c-.69 0-1.244.56-1.244 1.25s.565 1.25 1.255 1.25 1.25-.56 1.25-1.25Zm2.696-12.64-1.01 6.18c-.26 1.42-.85 2.46-2.95 2.46h-8.27c-1 0-1.84-.73-1.98-1.72L5.255 4.832a1.243 1.243 0 0 0-1.24-1.082h-.26a.75.75 0 0 1 0-1.5h.26A2.73 2.73 0 0 1 6.74 4.614L6.948 6h12.059a1.996 1.996 0 0 1 1.959 2.36Zm-6.14.307c-.993-.005-1.326.996-1.326.996s-.333-1.001-1.326-.996c-1.333.006-1.857 1.251-1.617 2.488.39 2.017 2.943 3.178 2.943 3.178s2.552-1.162 2.944-3.178c.239-1.237-.282-2.482-1.618-2.488Z"/>
</svg>
