<svg xmlns="http://www.w3.org/2000/svg" width="24" height="24" fill="none" viewBox="0 0 24 24">
  <path fill="#000" fill-opacity=".45" d="m19.276 13.359-4.026 1.26a.965.965 0 0 0-.633.633l-1.26 4.023c-.254.815-1.332.987-1.824.29l-2.42-3.427a.96.96 0 0 0-.798-.406l-4.34.065a.96.96 0 0 1-.782-1.536l2.606-3.488a.962.962 0 0 0 .142-.884L4.598 5.906c-.272-.808.5-1.58 1.308-1.308L9.888 5.94c.3.1.63.048.884-.142l3.487-2.606a.96.96 0 0 1 1.536.782l-.065 4.34a.96.96 0 0 0 .406.8l3.429 2.42a1.03 1.03 0 0 1-.29 1.824Zm2.254 7.11-3-3a.75.75 0 0 0-1.061 1.062l3 3a.748.748 0 0 0 1.06 0 .75.75 0 0 0 0-1.061Z"/>
</svg>
