<svg xmlns="http://www.w3.org/2000/svg" width="24" height="24" fill="none" viewBox="0 0 24 24">
  <path fill="#000" fill-opacity=".45" d="m21.53 3.53-18 17.996a.748.748 0 0 1-1.06 0 .75.75 0 0 1 0-1.061l4.22-4.22.14-.808a.993.993 0 0 0-.28-.88l-3.25-3.15c-.59-.57-.26-1.58.56-1.7l4.48-.65c.33-.05.61-.25.76-.55L11.04 4.6c.39-.8 1.53-.8 1.92 0l1.784 3.595L20.47 2.47a.75.75 0 1 1 1.06 1.06Zm-1.39 6.179-1.472-.21a.3.3 0 0 0-.254.086L7.283 20.713c-.121.12-.007.284.127.248.08-.022.16-.053.239-.094l3.88-2.03c.3-.15.64-.15.94 0l3.88 2.04c.79.41 1.71-.26 1.56-1.13l-.74-4.31c-.06-.32.05-.65.28-.88l3.244-3.143a.997.997 0 0 0-.553-1.705Z"/>
</svg>
