<svg xmlns="http://www.w3.org/2000/svg" width="24" height="24" fill="none" viewBox="0 0 24 24">
  <path fill="#000" fill-opacity=".45" d="M13 15.724v3.606c0 1.42-1.66 2.19-2.75 1.27l-1.292-1.1a.3.3 0 0 1-.018-.44l3.548-3.548a.3.3 0 0 1 .512.212Zm5.455-5.684a.75.75 0 1 0-1.434.44 5.221 5.221 0 0 1-1.313 5.23.75.75 0 0 0 1.06 1.06 6.712 6.712 0 0 0 1.687-6.73Zm2.981-3.181a.75.75 0 0 0-1.315.722c1.956 3.564 1.305 8.07-1.583 10.958a.75.75 0 0 0 1.06 1.06c3.357-3.356 4.113-8.595 1.838-12.74Zm.094-4.39a.75.75 0 0 0-1.061 0l-7.47 7.47V4.67c0-1.42-1.66-2.19-2.75-1.27l-3.69 3.13c-.36.3-.82.47-1.29.47h-1.77c-.83 0-1.5.67-1.5 1.5v7c0 .83.67 1.5 1.5 1.5h1.77c.197 0 .39.036.577.093L2.469 20.47a.75.75 0 0 0 1.06 1.06l18-18a.748.748 0 0 0 .001-1.06Z"/>
</svg>
